<?xml version="1.0" encoding="UTF-8"?>
<svg id="Layer_1" xmlns="http://www.w3.org/2000/svg" version="1.1" viewBox="0 0 47.2 47.2">
  <!-- Generator: Adobe Illustrator 30.0.0, SVG Export Plug-In . SVG Version: 2.1.1 Build 123)  -->
  <defs>
    <style>
      .st0 {
        fill: #01ab76;
      }
    </style>
  </defs>
  <path class="st0" d="M23.8.1C10.7.1.2,10.7.2,23.7s10.6,23.6,23.6,23.6,23.6-10.6,23.6-23.6S36.8.1,23.8.1ZM23.6,12.6c3.6,0,6.6,2.9,6.6,6.6s-2.9,6.6-6.6,6.6-6.6-2.9-6.6-6.6,2.9-6.6,6.6-6.6ZM23.6,42.2c-4.8,0-9.2-1.8-12.5-4.9,2-5.4,6.1-9,10.9-9.7.4,0,.8,0,1.2,0,.1,0,.2,0,.4,0s.2,0,.4,0c.4,0,.8,0,1.2,0,4.8.7,8.9,4.3,10.9,9.6-3.3,3-7.7,4.9-12.5,4.9Z"/>
</svg>